<svg aria-hidden="true" style="width:0;height:0;position:absolute;overflow:hidden" xmlns="http://www.w3.org/2000/svg"><defs><symbol id="icon-star" viewBox="0 0 34 32"><path fill="#f8f8f8" style="fill:var(--color1,#f8f8f8)" opacity=".1" d="M14.89 2.282c.738-2.267 3.946-2.267 4.682 0l2.08 6.4a2.466 2.466 0 0 0 2.341 1.703h6.732c2.385 0 3.375 3.052 1.447 4.453l-5.447 3.956a2.461 2.461 0 0 0-.888 2.769l-.005-.017 2.08 6.402c.738 2.267-1.858 4.155-3.788 2.752l-5.445-3.956c-.401-.294-.903-.471-1.447-.471s-1.047.176-1.454.475l.007-.005-5.445 3.956c-1.93 1.403-4.524-.485-3.788-2.752l2.08-6.4a2.459 2.459 0 0 0-.887-2.75l-.007-.005-5.447-3.956c-1.927-1.403-.935-4.455 1.447-4.455h6.732A2.463 2.463 0 0 0 12.803 8.7l.005-.017 2.082-6.4z"/></symbol><symbol id="icon-x" viewBox="0 0 32 32"><path stroke-linejoin="round" stroke-linecap="round" stroke-width="2.667" d="M24 8 8 24M8 8l16 16"/></symbol><symbol id="icon-arrow" viewBox="0 0 32 32"><path fill="#f8f8f8" style="fill:var(--color1,#f8f8f8)" opacity=".5" d="M14.133 16.947c-.244-.241-.395-.576-.395-.947s.151-.705.395-.947l6.12-6.107a1.333 1.333 0 0 0-.94-2.281c-.367 0-.699.148-.94.388l-6.12 6.12c-.723.724-1.17 1.723-1.17 2.827s.447 2.103 1.17 2.827l6.12 6.12a1.334 1.334 0 1 0 1.88-1.894l-6.12-6.107z"/></symbol><symbol id="icon-burger" viewBox="0 0 32 32"><path stroke-linejoin="round" stroke-linecap="round" stroke-width="2" d="M28 13.333H4M28 8H4m24 10.667H4M28 24H4"/></symbol><symbol id="icon-shopping-cart" viewBox="0 0 60 60"><path stroke-linejoin="round" stroke-linecap="round" stroke-width="5" d="M22.5 55a2.5 2.5 0 1 0 0-5 2.5 2.5 0 0 0 0 5zM50 55a2.5 2.5 0 1 0 0-5 2.5 2.5 0 0 0 0 5z"/><path stroke-linejoin="round" stroke-linecap="round" stroke-width="4.5" d="M2.5 2.5h10l6.7 33.475a5.004 5.004 0 0 0 5 4.025h24.3a4.996 4.996 0 0 0 5-4.025L57.5 15H15"/></symbol><symbol id="icon-switch" viewBox="0 0 93 60"><path d="M24.706 12.941h30.588c6.497 0 11.765 5.267 11.765 11.765s-5.267 11.765-11.765 11.765H24.706c-6.497 0-11.765-5.267-11.765-11.765s5.267-11.765 11.765-11.765z"/><path d="M35.764 24.706c0 6.108-4.951 11.059-11.059 11.059s-11.059-4.951-11.059-11.059 4.951-11.059 11.059-11.059 11.059 4.951 11.059 11.059z"/></symbol><symbol id="icon-x" viewBox="0 0 60 60"><path fill="none" stroke="#f8f8f8" style="stroke:var(--color1,#f8f8f8)" stroke-linejoin="round" stroke-linecap="round" stroke-width="3.75" d="M45 15 15 45M15 15l30 30"/></symbol><symbol id="icon-cart" viewBox="0 0 32 32"><path stroke-linejoin="round" stroke-linecap="round" stroke-width="2.667" d="M12 29.333a1.333 1.333 0 0 0 0-2.666 1.333 1.333 0 0 0 0 2.666zm14.667 0a1.333 1.333 0 0 0 0-2.666 1.333 1.333 0 0 0 0 2.666z"/><path stroke-linejoin="round" stroke-linecap="round" stroke-width="2.4" d="M1.333 1.333h5.333l3.573 17.853a2.671 2.671 0 0 0 2.616 2.147l.054-.001h-.003H25.917a2.668 2.668 0 0 0 2.613-2.13l.003-.017 2.133-11.187H7.999"/></symbol><symbol id="icon-elements" viewBox="0 0 35 32"><path fill="#9bb537" style="fill:var(--color2,#9bb537)" d="M7.325 12.723h23.133v17.735H7.325V12.723z"/><path fill="#9bb537" style="fill:var(--color2,#9bb537)" d="M16.578 11.373a8.289 8.289 0 1 1-16.578 0 8.289 8.289 0 1 1 16.578 0z"/><path fill="#9bb537" style="fill:var(--color2,#9bb537)" d="M26.988 8.289a8.289 8.289 0 1 1-16.578 0 8.289 8.289 0 1 1 16.578 0z"/><path fill="#9bb537" style="fill:var(--color2,#9bb537)" d="M37.398 11.373a8.289 8.289 0 1 1-16.578 0 8.289 8.289 0 1 1 16.578 0z"/><path fill="#f8f8f8" style="fill:var(--color1,#f8f8f8)" d="M7.325 29.301h23.133v2.036c0 .366-.324.663-.723.663H8.048c-.399 0-.723-.297-.723-.663v-2.036zm6.94-18.941c0-.611.432-1.107.964-1.107s.964.495.964 1.107v5.112c0 .611-.432 1.107-.964 1.107s-.964-.495-.964-1.107V10.36zm3.084 0c0-.611.604-1.107 1.349-1.107s1.349.495 1.349 1.107v5.112c0 .611-.604 1.107-1.349 1.107s-1.349-.495-1.349-1.107V10.36zm3.856 0c0-.611.432-1.107.964-1.107s.964.495.964 1.107v5.112c0 .611-.432 1.107-.964 1.107s-.964-.495-.964-1.107V10.36z"/><path fill="#050505" style="fill:var(--color3,#050505)" d="M28.184 3.131c.262-.029.566-.045.874-.045h.005a8.332 8.332 0 0 1 7.938 5.746 8.333 8.333 0 0 1-8.816-5.7z"/></symbol><symbol id="icon-search" viewBox="0 0 32 32"><path d="M28.946 27.054 24 22.147a11.926 11.926 0 0 0 2.642-7.512c0-6.627-5.373-12-12-12s-12 5.373-12 12 5.373 12 12 12c2.85 0 5.468-.994 7.526-2.653l-.023.018 4.907 4.907a1.333 1.333 0 0 0 1.894 0 1.33 1.33 0 0 0-.001-1.853zM14.667 24a9.333 9.333 0 1 1 0-18.666 9.333 9.333 0 1 1 0 18.666z"/></symbol></defs></svg>